<svg xmlns="http://www.w3.org/2000/svg" xmlns:xlink="http://www.w3.org/1999/xlink" width="500" zoomAndPan="magnify" viewBox="0 0 375 374.999991" height="500" preserveAspectRatio="xMidYMid meet" version="1.0"><defs><g/><clipPath id="28a442a922"><path d="M 153.613281 155.277344 L 216.613281 155.277344 L 216.613281 219.777344 L 153.613281 219.777344 Z M 153.613281 155.277344 " clip-rule="nonzero"/></clipPath></defs><g fill="#000000" fill-opacity="1"><g transform="translate(21.044604, 225.749985)"><g><path d="M 5.203125 17.734375 L 25.625 7.75 C 29.375 13.9375 35.898438 17.03125 45.203125 17.03125 C 49.515625 17.03125 53.523438 15.644531 57.234375 12.875 C 60.941406 10.113281 62.796875 5.867188 62.796875 0.140625 L 62.796875 -5.203125 C 58.378906 -0.328125 50.492188 2.109375 39.140625 2.109375 C 28.722656 2.109375 20.132812 -1.570312 13.375 -8.9375 C 6.613281 -16.3125 3.234375 -25.347656 3.234375 -36.046875 C 3.234375 -46.742188 6.613281 -55.800781 13.375 -63.21875 C 20.132812 -70.632812 28.722656 -74.34375 39.140625 -74.34375 C 48.429688 -74.34375 56.175781 -71.476562 62.375 -65.75 L 62.796875 -65.75 L 62.796875 -72.234375 L 87.71875 -72.234375 L 87.71875 1.96875 C 87.71875 13.707031 83.820312 22.765625 76.03125 29.140625 C 68.238281 35.523438 57.960938 38.71875 45.203125 38.71875 C 24.546875 38.71875 11.210938 31.722656 5.203125 17.734375 Z M 34.5625 -48.28125 C 31.320312 -45.09375 29.703125 -41.007812 29.703125 -36.03125 C 29.703125 -31.0625 31.25 -27.003906 34.34375 -23.859375 C 37.445312 -20.710938 41.535156 -19.140625 46.609375 -19.140625 C 51.484375 -19.140625 55.492188 -20.734375 58.640625 -23.921875 C 61.785156 -27.117188 63.359375 -31.160156 63.359375 -36.046875 C 63.359375 -41.015625 61.738281 -45.09375 58.5 -48.28125 C 55.257812 -51.476562 51.296875 -53.078125 46.609375 -53.078125 C 41.816406 -53.078125 37.800781 -51.476562 34.5625 -48.28125 Z M 34.5625 -48.28125 "/></g></g></g><g fill="#000000" fill-opacity="1"><g transform="translate(106.221211, 225.749985)"><g><path d="M 10.84375 -112.484375 C 13.75 -115.398438 17.21875 -116.859375 21.25 -116.859375 C 25.289062 -116.859375 28.765625 -115.398438 31.671875 -112.484375 C 34.585938 -109.578125 36.046875 -106.109375 36.046875 -102.078125 C 36.046875 -98.046875 34.585938 -94.570312 31.671875 -91.65625 C 28.765625 -88.75 25.289062 -87.296875 21.25 -87.296875 C 17.21875 -87.296875 13.75 -88.75 10.84375 -91.65625 C 7.9375 -94.570312 6.484375 -98.046875 6.484375 -102.078125 C 6.484375 -106.109375 7.9375 -109.578125 10.84375 -112.484375 Z M 8.453125 -72.234375 L 8.453125 0 L 33.375 0 L 33.375 -72.234375 Z M 8.453125 -72.234375 "/></g></g></g><g fill="#000000" fill-opacity="1"><g transform="translate(137.757155, 225.749985)"><g><path d="M 92.078125 0 L 61.953125 0 L 46.046875 -20.421875 L 30.125 0 L 0 0 L 30.828125 -37.734375 L 4.359375 -72.234375 L 33.515625 -72.234375 L 46.046875 -55.46875 L 58.578125 -72.234375 L 87.71875 -72.234375 L 61.25 -37.734375 Z M 92.078125 0 "/></g></g></g><g fill="#000000" fill-opacity="1"><g transform="translate(218.850865, 225.749985)"><g><path d="M 81.515625 -32.671875 L 29.140625 -32.671875 C 29.140625 -27.597656 30.78125 -23.835938 34.0625 -21.390625 C 37.351562 -18.953125 40.921875 -17.734375 44.765625 -17.734375 C 48.804688 -17.734375 52 -18.273438 54.34375 -19.359375 C 56.695312 -20.441406 59.375 -22.578125 62.375 -25.765625 L 80.390625 -16.75 C 72.878906 -4.175781 60.394531 2.109375 42.9375 2.109375 C 32.050781 2.109375 22.710938 -1.617188 14.921875 -9.078125 C 7.128906 -16.546875 3.234375 -25.535156 3.234375 -36.046875 C 3.234375 -46.554688 7.128906 -55.566406 14.921875 -63.078125 C 22.710938 -70.585938 32.050781 -74.34375 42.9375 -74.34375 C 54.394531 -74.34375 63.710938 -71.03125 70.890625 -64.40625 C 78.066406 -57.789062 81.65625 -48.335938 81.65625 -36.046875 C 81.65625 -34.359375 81.609375 -33.234375 81.515625 -32.671875 Z M 29.84375 -46.46875 L 57.296875 -46.46875 C 56.734375 -50.21875 55.253906 -53.101562 52.859375 -55.125 C 50.472656 -57.144531 47.398438 -58.15625 43.640625 -58.15625 C 39.515625 -58.15625 36.226562 -57.070312 33.78125 -54.90625 C 31.34375 -52.75 30.03125 -49.9375 29.84375 -46.46875 Z M 29.84375 -46.46875 "/></g></g></g><g fill="#000000" fill-opacity="1"><g transform="translate(292.764335, 225.749985)"><g><path d="M 8.453125 0 L 8.453125 -121.078125 L 33.375 -121.078125 L 33.375 0 Z M 8.453125 0 "/></g></g></g><g clip-path="url(#28a442a922)"><path fill="#e4e1da" d="M 216.351562 186.996094 L 207.097656 186.996094 C 191.257812 183.570312 187.738281 180.035156 184.308594 164.171875 L 184.308594 155.28125 L 183.140625 155.28125 L 183.140625 164.265625 C 179.71875 180.046875 176.179688 183.578125 160.371094 186.996094 L 153.621094 186.996094 L 153.621094 188.167969 L 160.371094 188.167969 C 176.179688 191.589844 179.71875 195.117188 183.140625 210.898438 L 183.140625 219.71875 L 184.308594 219.71875 L 184.308594 210.992188 C 187.738281 195.128906 191.257812 191.59375 207.097656 188.167969 L 216.351562 188.167969 Z M 216.351562 186.996094 " fill-opacity="1" fill-rule="nonzero"/></g><g fill="#000000" fill-opacity="1"><g transform="translate(148.960711, 245.33137)"><g><path d="M 5.390625 0.140625 C 4.742188 0.140625 4.132812 0.015625 3.5625 -0.234375 C 3 -0.484375 2.503906 -0.828125 2.078125 -1.265625 C 1.648438 -1.710938 1.3125 -2.226562 1.0625 -2.8125 C 0.820312 -3.394531 0.703125 -4.019531 0.703125 -4.6875 C 0.703125 -5.351562 0.820312 -5.976562 1.0625 -6.5625 C 1.3125 -7.15625 1.648438 -7.671875 2.078125 -8.109375 C 2.503906 -8.546875 3 -8.890625 3.5625 -9.140625 C 4.132812 -9.390625 4.742188 -9.515625 5.390625 -9.515625 C 6.035156 -9.515625 6.640625 -9.390625 7.203125 -9.140625 C 7.773438 -8.890625 8.273438 -8.546875 8.703125 -8.109375 C 9.128906 -7.671875 9.460938 -7.160156 9.703125 -6.578125 C 9.953125 -5.992188 10.078125 -5.363281 10.078125 -4.6875 C 10.078125 -4.03125 9.953125 -3.410156 9.703125 -2.828125 C 9.460938 -2.242188 9.128906 -1.726562 8.703125 -1.28125 C 8.273438 -0.84375 7.773438 -0.492188 7.203125 -0.234375 C 6.640625 0.015625 6.035156 0.140625 5.390625 0.140625 Z M 5.390625 -0.828125 C 5.898438 -0.828125 6.378906 -0.921875 6.828125 -1.109375 C 7.273438 -1.304688 7.660156 -1.578125 7.984375 -1.921875 C 8.304688 -2.273438 8.5625 -2.6875 8.75 -3.15625 C 8.9375 -3.625 9.03125 -4.132812 9.03125 -4.6875 C 9.03125 -5.238281 8.9375 -5.75 8.75 -6.21875 C 8.5625 -6.695312 8.304688 -7.109375 7.984375 -7.453125 C 7.660156 -7.796875 7.273438 -8.0625 6.828125 -8.25 C 6.378906 -8.445312 5.898438 -8.546875 5.390625 -8.546875 C 4.867188 -8.546875 4.382812 -8.445312 3.9375 -8.25 C 3.5 -8.0625 3.117188 -7.796875 2.796875 -7.453125 C 2.472656 -7.109375 2.21875 -6.695312 2.03125 -6.21875 C 1.84375 -5.75 1.75 -5.238281 1.75 -4.6875 C 1.75 -4.132812 1.84375 -3.625 2.03125 -3.15625 C 2.21875 -2.6875 2.472656 -2.273438 2.796875 -1.921875 C 3.117188 -1.578125 3.5 -1.304688 3.9375 -1.109375 C 4.382812 -0.921875 4.867188 -0.828125 5.390625 -0.828125 Z M 5.390625 -0.828125 "/></g></g></g><g fill="#000000" fill-opacity="1"><g transform="translate(163.934813, 245.33137)"><g><path d="M 0.421875 -9.375 L 1.453125 -9.375 L 3.84375 -2.203125 L 6.453125 -9.375 L 6.734375 -9.375 L 9.359375 -2.3125 L 11.71875 -9.375 L 12.703125 -9.375 L 9.5 0.28125 L 9.296875 0.28125 L 6.5625 -7.0625 L 3.890625 0.28125 L 3.609375 0.28125 Z M 0.421875 -9.375 "/></g></g></g><g fill="#000000" fill-opacity="1"><g transform="translate(181.245616, 245.33137)"><g><path d="M 2.21875 -7.296875 L 2.21875 0 L 1.265625 0 L 1.265625 -9.65625 L 1.546875 -9.65625 L 7.875 -2.09375 L 7.875 -9.375 L 8.8125 -9.375 L 8.8125 0.28125 L 8.546875 0.28125 Z M 2.21875 -7.296875 "/></g></g></g><g fill="#000000" fill-opacity="1"><g transform="translate(195.52012, 245.33137)"><g/></g></g><g fill="#000000" fill-opacity="1"><g transform="translate(202.798516, 245.33137)"><g><path d="M 1.265625 -9.375 L 2.234375 -9.375 L 2.234375 0 L 1.265625 0 Z M 1.265625 -9.375 "/></g></g></g><g fill="#000000" fill-opacity="1"><g transform="translate(210.496681, 245.33137)"><g><path d="M 3.5 -8.46875 L 0.421875 -8.46875 L 0.421875 -9.375 L 7.5625 -9.375 L 7.5625 -8.46875 L 4.484375 -8.46875 L 4.484375 0 L 3.5 0 Z M 3.5 -8.46875 "/></g></g></g><g fill="#000000" fill-opacity="1"><g transform="translate(222.672347, 245.33137)"><g><path d="M 1.671875 0.0625 C 1.472656 0.0625 1.304688 0 1.171875 -0.125 C 1.046875 -0.257812 0.984375 -0.425781 0.984375 -0.625 C 0.984375 -0.832031 1.046875 -1 1.171875 -1.125 C 1.304688 -1.257812 1.476562 -1.328125 1.6875 -1.328125 C 1.875 -1.328125 2.03125 -1.257812 2.15625 -1.125 C 2.289062 -1 2.359375 -0.832031 2.359375 -0.625 C 2.359375 -0.425781 2.289062 -0.257812 2.15625 -0.125 C 2.03125 0 1.867188 0.0625 1.671875 0.0625 Z M 1.671875 0.0625 "/></g></g></g></svg>